# Blender v2.83.4 OBJ File: ''
# www.blender.org
mtllib steve.mtl
o Steve_RArm
v -0.111092 0.591080 0.452847
v -0.113522 0.590369 0.222899
v 0.097579 0.587824 0.220676
v 0.100009 0.588536 0.450624
v -0.103807 1.197125 0.450894
v -0.106236 1.196413 0.220946
v 0.107294 1.194580 0.448672
v 0.104864 1.193868 0.218723
vt 0.810749 0.385914
vt 0.811271 0.499729
vt 0.759676 0.499733
vt 0.759154 0.385918
vt 0.747193 0.001975
vt 0.748349 0.364560
vt 0.693041 0.364662
vt 0.691885 0.002077
vt 0.692350 0.372208
vt 0.697119 0.006768
vt 0.755237 0.007035
vt 0.750468 0.372475
vt 0.752226 0.003554
vt 0.753944 0.372404
vt 0.690567 0.378607
vt 0.688849 0.009758
vt 0.756093 0.006957
vt 0.756694 0.363210
vt 0.689552 0.364713
vt 0.688950 0.008460
vt 0.686919 0.378174
vt 0.749925 0.378174
vt 0.749289 0.500739
vt 0.686282 0.500739
vn -0.5781 -0.5686 0.5853
vn -0.5903 -0.5721 -0.5694
vn 0.5642 -0.5861 -0.5815
vn 0.5764 -0.5825 0.5731
vn -0.5642 0.5861 0.5815
vn -0.5764 0.5825 -0.5731
vn 0.5903 0.5721 0.5694
vn 0.5781 0.5686 -0.5853
usemtl Steve
s 1
f 1/1/1 2/2/2 3/3/3 4/4/4
f 1/5/1 5/6/5 6/7/6 2/8/2
f 5/9/5 1/10/1 4/11/4 7/12/7
f 2/13/2 6/14/6 8/15/8 3/16/3
f 3/17/3 8/18/8 7/19/7 4/20/4
f 5/21/5 7/22/7 8/23/8 6/24/6
o Steve_Head
v -0.202387 1.604101 0.203718
v -0.202387 1.199335 0.201048
v -0.202387 1.199335 0.201048
v -0.202387 1.604101 0.203718
v 0.202387 1.604101 0.203718
v 0.202387 1.606770 -0.201048
v -0.202387 1.606770 -0.201048
v -0.202387 1.202004 -0.203718
v 0.202387 1.604101 0.203718
v 0.202387 1.202004 -0.203718
v 0.202387 1.199335 0.201048
v 0.202387 1.199335 0.201048
vt 0.376673 0.749269
vt 0.375900 0.503487
vt 0.375900 0.503487
vt 0.376673 0.749269
vt 0.125457 0.755906
vt 0.249146 0.755974
vt 0.249112 0.999932
vt 0.125829 0.999911
vt 0.500661 0.750006
vt 0.500024 0.502517
vt 0.125829 0.999911
vt 0.125457 0.755906
vt 0.253952 0.761856
vt 0.369216 0.761856
vt 0.369216 0.991808
vt 0.253952 0.991808
vt 1.000000 1.000000
vt 1.000000 0.000000
vt 1.000000 0.000000
vt 1.000000 1.000000
vt 0.123832 0.501264
vt 0.124180 0.750315
vt 0.002091 0.753476
vt 0.001326 0.503335
vt 0.125687 0.503316
vt 0.250780 0.503290
vt 0.251113 0.748845
vt 0.126238 0.747512
vt 0.126238 0.747512
vt 0.125687 0.503316
vt 0.249306 0.504219
vt 0.374877 0.506418
vt 0.374931 0.749621
vt 0.250104 0.747256
vn -0.4074 0.4073 0.8174
vn -0.4091 -0.4091 0.8156
vn 0.0000 -0.0022 1.0000
vn 0.4074 0.4073 0.8174
vn 0.5773 0.5811 -0.5735
vn -0.5774 0.5811 -0.5735
vn -0.5774 -0.5735 -0.5811
vn 0.5774 -0.5735 -0.5811
vn 0.4091 -0.4091 0.8156
usemtl Steve
s 1
f 9/25/9 10/26/10 11/27/11 12/28/11
f 13/29/12 14/30/13 15/31/14 9/32/9
f 9/25/9 15/33/14 16/34/15 10/26/10
f 13/29/12 9/32/9 12/35/11 17/36/11
f 18/37/16 19/38/17 10/39/10 16/40/15
f 10/41/10 19/42/17 20/43/11 11/44/11
f 20/45/11 17/46/11 12/47/11 11/48/11
f 19/49/17 18/50/16 14/51/13 13/52/12
f 19/49/17 13/52/12 17/53/11 20/54/11
f 18/55/16 16/56/15 15/57/14 14/58/13
o Steve_LArm
v -0.111092 1.201681 -0.452847
v -0.113522 1.202392 -0.222898
v 0.097579 1.204937 -0.220676
v 0.100009 1.204226 -0.450624
v -0.103807 0.595636 -0.450893
v -0.106236 0.596348 -0.220945
v 0.107294 0.598181 -0.448671
v 0.104864 0.598893 -0.218723
vt 0.689934 0.495565
vt 0.689339 0.380423
vt 0.748153 0.380419
vt 0.748748 0.495561
vt 0.691096 0.377156
vt 0.693834 0.001912
vt 0.747501 0.008395
vt 0.753152 0.375250
vt 0.690080 0.003953
vt 0.691833 0.375361
vt 0.751610 0.369261
vt 0.749856 -0.002147
vt 0.688328 0.374991
vt 0.688328 0.005988
vt 0.748819 0.000058
vt 0.748819 0.369061
vt 0.688839 0.369572
vt 0.687600 0.004327
vt 0.751165 0.000589
vt 0.752404 0.365834
vt 0.813120 0.496101
vt 0.757901 0.498796
vt 0.759715 0.389343
vt 0.814246 0.387968
vn -0.5781 0.5686 -0.5853
vn -0.5903 0.5721 0.5694
vn 0.5642 0.5861 0.5815
vn 0.5764 0.5825 -0.5731
vn -0.5642 -0.5861 -0.5815
vn -0.5764 -0.5825 0.5731
vn 0.5903 -0.5721 -0.5694
vn 0.5781 -0.5686 0.5853
usemtl Steve
s 1
f 21/59/18 22/60/19 23/61/20 24/62/21
f 21/63/18 25/64/22 26/65/23 22/66/19
f 25/67/22 21/68/18 24/69/21 27/70/24
f 22/71/19 26/72/23 28/73/25 23/74/20
f 23/75/20 28/76/25 27/77/24 24/78/21
f 25/79/22 27/80/24 28/81/25 26/82/23
o Steve_RLeg
v -0.105564 0.596883 0.000091
v -0.105564 0.596883 0.230054
v 0.105564 0.596883 0.230054
v 0.105564 0.596883 0.000091
v -0.105564 -0.009208 0.000091
v -0.105564 -0.009208 0.230054
v 0.105564 -0.009208 0.000091
v 0.105564 -0.009208 0.230053
vt 0.124564 0.372844
vt 0.123284 0.495731
vt 0.062259 0.497328
vt 0.063538 0.374441
vt 0.250211 0.370491
vt 0.250211 0.001371
vt 0.190639 -0.001314
vt 0.190639 0.367806
vt 0.000807 0.009620
vt 0.000807 0.377727
vt 0.059514 0.377727
vt 0.059514 0.009620
vt 0.000878 0.373364
vt 0.000878 0.010074
vt 0.062985 0.010074
vt 0.062985 0.373364
vt 0.065586 0.375905
vt 0.065375 0.003473
vt 0.124947 0.003338
vt 0.125158 0.375770
vt 0.179068 0.489942
vt 0.130391 0.486732
vt 0.129081 0.397994
vt 0.177758 0.401205
vn -0.5774 0.5774 -0.5774
vn -0.5774 0.5774 0.5774
vn 0.5774 0.5774 0.5774
vn 0.5774 0.5774 -0.5774
vn -0.5774 -0.5774 -0.5774
vn -0.5773 -0.5774 0.5774
vn 0.5774 -0.5774 -0.5774
vn 0.5774 -0.5774 0.5773
usemtl Steve
s 1
f 29/83/26 30/84/27 31/85/28 32/86/29
f 29/87/26 33/88/30 34/89/31 30/90/27
f 33/91/30 29/92/26 32/93/29 35/94/32
f 30/95/27 34/96/31 36/97/33 31/98/28
f 31/99/28 36/100/33 35/101/32 32/102/29
f 33/103/30 35/104/32 36/105/33 34/106/31
o Steve_Body
v -0.105564 1.201799 -0.229023
v -0.105564 1.201799 0.235545
v 0.105564 1.201799 0.235544
v 0.105564 1.201799 -0.229024
v -0.105564 0.595708 -0.229024
v -0.105564 0.595708 0.235545
v 0.105564 0.595708 -0.229024
v 0.105564 0.595708 0.235544
vt 0.439419 0.501069
vt 0.313044 0.494516
vt 0.314588 0.373515
vt 0.440962 0.380069
vt 0.622224 0.375264
vt 0.625501 0.005748
vt 0.508958 0.000506
vt 0.505681 0.370022
vt 0.500000 -0.005172
vt 0.500000 0.370784
vt 0.441207 0.370784
vt 0.441206 -0.005172
vt 0.309159 0.373364
vt 0.309159 -0.002509
vt 0.249632 -0.002509
vt 0.249632 0.373364
vt 0.312738 0.372217
vt 0.312738 0.000239
vt 0.438887 0.000239
vt 0.438887 0.372217
vt 0.183671 0.494358
vt 0.127578 0.496613
vt 0.129334 0.382434
vt 0.185427 0.380179
vn -0.5774 0.5774 -0.5774
vn -0.5774 0.5774 0.5774
vn 0.5774 0.5774 0.5773
vn 0.5774 0.5774 -0.5774
vn -0.5774 -0.5774 -0.5774
vn -0.5773 -0.5774 0.5774
vn 0.5774 -0.5774 -0.5774
vn 0.5774 -0.5774 0.5773
usemtl Steve
s 1
f 37/107/34 38/108/35 39/109/36 40/110/37
f 37/111/34 41/112/38 42/113/39 38/114/35
f 41/115/38 37/116/34 40/117/37 43/118/40
f 38/119/35 42/120/39 44/121/41 39/122/36
f 39/123/36 44/124/41 43/125/40 40/126/37
f 41/127/38 43/128/40 44/129/41 42/130/39
o Steve_LLeg
v -0.105564 0.596883 -0.230496
v -0.105564 0.596883 -0.000534
v 0.105564 0.596883 -0.000534
v 0.105564 0.596883 -0.230497
v -0.105564 -0.009208 -0.230496
v -0.105564 -0.009208 -0.000534
v 0.105564 -0.009208 -0.230496
v 0.105564 -0.009208 -0.000534
vt 0.122711 0.377515
vt 0.122790 0.486939
vt 0.062175 0.489947
vt 0.062097 0.380523
vt 0.250211 0.373175
vt 0.250211 0.001371
vt 0.187955 -0.001314
vt 0.187955 0.370491
vt 0.187525 0.000071
vt 0.187524 0.370784
vt 0.125900 0.370784
vt 0.125900 0.000071
vt -0.003674 0.368140
vt 0.003760 -0.002275
vt 0.065964 -0.002528
vt 0.058530 0.367886
vt 0.068050 0.365241
vt 0.068050 0.003935
vt 0.122484 0.003935
vt 0.122484 0.365241
vt 0.185797 0.496086
vt 0.129150 0.496087
vt 0.130335 0.384604
vt 0.186982 0.384604
vn -0.5774 0.5774 -0.5773
vn -0.5774 0.5774 0.5774
vn 0.5774 0.5774 0.5774
vn 0.5773 0.5774 -0.5774
vn -0.5774 -0.5774 -0.5774
vn -0.5773 -0.5774 0.5774
vn 0.5774 -0.5774 -0.5774
vn 0.5774 -0.5774 0.5773
usemtl Steve
s 1
f 45/131/42 46/132/43 47/133/44 48/134/45
f 45/135/42 49/136/46 50/137/47 46/138/43
f 49/139/46 45/140/42 48/141/45 51/142/48
f 46/143/43 50/144/47 52/145/49 47/146/44
f 47/147/44 52/148/49 51/149/48 48/150/45
f 49/151/46 51/152/48 52/153/49 50/154/47
